PathFileType	4	(X/Y/Z)	C:/Users/beibeiliu/ov580/test_trc/User3\sequence.15_training_dense_right.trc
DataRate	CameraRate	NumFrames	NumMarkers	Units	OrigDataRate	OrigDataStartFrame	OrigNumFrames
120	120	12	19	mm	120	59	87
Frame#	Time	ThumbCMC			ThumbMCP			ThumbIP			ThumbTip			IndexMCP			IndexPIP			IndexTip			MiddleMCP			MiddlePIP			MiddleTip			RingMCP			RingPIP			RingTip			PinkyMCP			PinkyPIP			PinkyTip			BackHand1			BackHand2			BackHand3	
		X0	Y0	Z0	X1	Y1	Z1	X2	Y2	Z2	X3	Y3	Z3	X4	Y4	Z4	X5	Y5	Z5	X6	Y6	Z6	X7	Y7	Z7	X8	Y8	Z8	X9	Y9	Z9	X10	Y10	Z10	X11	Y11	Z11	X12	Y12	Z12	X13	Y13	Z13	X14	Y14	Z14	X15	Y15	Z15	X16	Y16	Z16	X17	Y17	Z17	X18	Y18	Z18	
58	0.483333	203.175	33.5278	18.0752	207.682	48.6719	-4.73293	213.328	60.6636	-29.8609	211.045	69.5668	-50.1703	158.628	33.0417	-40.9538	144.145	61.5977	-29.6243	158.148	53.777	-1.5045	141.201	23.5867	-33.1026	127.8	50.3444	-13.5436	155.437	39.7412	14.2233	131.881	14.5037	-25.0568	116.664	37.1742	-8.35697	137.339	37.8768	15.3943	125.008	-10.9443	-14.0269	111.808	-5.92904	-29.9265	97.3661	-3.72844	-47.6208	165.968	-17.6035	12.2531	178.648	-19.3939	40.9201	196.465	0.795969	13.4511	
59	0.491667	201.814	24.0741	21.5865	208.932	41.0435	-2.67843	205.318	52.1429	-28.7819	207.263	64.6595	-44.8777	155.771	30.6966	-36.2711	140.359	55.4455	-23.147	154.408	46.5176	6.55712	134.016	23.6314	-25.9106	127.213	48.645	-5.85485	150.984	36.3956	21.1254	122.811	10.4528	-16.7298	113.369	35.3133	0.179164	135.588	30.721	24.1739	119.213	-14.2269	-4.66155	104.05	-8.26304	-19.1436	91.5963	-0.744583	-35.4026	159.907	-23.0783	11.3801	175.667	-27.9306	42.6833	192.527	-9.38174	15.9377	
60	0.5	197.404	24.9396	26.3459	190.747	40.4596	3.88478	189.95	57.6031	-19.9511	188.222	72.7077	-36.9955	134.866	29.5725	-23.6054	127.142	54.8669	-3.31282	149.539	43.7392	19.1837	123.275	19.4153	-12.3829	117.349	45.8466	8.60097	146.233	26.5449	34.6731	108.725	8.80777	-0.357474	104.87	29.0183	19.145	132.373	22.9677	38.2536	109.295	-18.6658	9.59041	94.1135	-7.98536	-6.30544	75.4392	-6.27506	-14.5472	154.09	-29.0236	19.1697	173.309	-33.2635	44.5781	184.268	-10.7156	15.1486	
61	0.508333	185.878	24.2945	26.9174	181.456	45.4147	9.98942	171.574	62.9866	-12.666	163.128	74.4875	-25.0311	123.489	27.2475	-10.3293	110.791	49.2198	14.0032	137.941	43.6366	28.9849	108.841	14.0967	5.70587	107.189	41.8463	28.045	140.804	27.7441	43.0259	102.373	5.46577	14.9915	96.6618	25.3006	35.6467	127.271	19.8813	51.9263	101.797	-20.1163	19.6425	84.4706	-15.5905	15.5629	61.7794	-8.02236	2.4144	146.941	-29.9302	25.1731	170.595	-35.395	46.1298	178.661	-8.00046	17.5355	
62	0.516667	187.7	23.6949	28.0285	179.122	43.6529	10.913	168.451	62.4261	-12.9909	164.443	76.341	-24.3188	120.176	27.122	-4.74284	108.568	49.542	15.479	138.704	43.252	33.3195	103.428	20.1687	9.34192	105.954	42.6076	31.9071	140.032	23.9934	46.9721	100.25	3.93325	21.6251	99.6527	29.474	42.6637	131.662	19.6242	54.9232	99.355	-21.1742	27.9177	80.4486	-11.3311	18.9597	60.5044	-3.01048	9.94697	148.115	-29.2683	28.36	170.565	-37.593	49.2389	173.989	-8.81504	19.8692	
63	0.525	194.435	22.7745	26.0311	189.911	41.6976	7.07737	186.706	60.1069	-15.5634	182.419	76.3271	-31.7596	130.721	31.3745	-11.5903	125.048	59.9759	7.59315	144.977	42.3884	29.1651	114.728	23.4387	0.737147	112.729	47.1298	20.9345	144.559	25.3246	42.0042	107.122	10.0031	13.3993	103.515	33.2264	33.292	131.074	26.2278	49.7217	103.487	-13.5414	20.3467	89.8086	-3.28017	10.3749	68.7345	3.46662	-0.485009	148.31	-27.7352	22.8735	170.889	-34.5872	48.8847	180.302	-7.80151	18.2365	
64	0.533333	205.483	16.9547	30.9505	206.665	37.2086	3.37192	209.032	54.142	-15.5531	206.145	67.9899	-35.2903	153.329	32.2668	-24.3819	144.245	61.0464	-4.34154	158.555	44.2859	19.7512	133.495	27.5517	-14.8114	127.391	49.9982	7.20915	154.523	32.242	30.5119	119.947	15.0097	-1.93208	115.293	40.7501	19.5043	138.549	34.0438	37.206	113.997	-7.5841	5.47055	98.6086	1.51042	-7.87439	81.6859	7.9442	-19.8793	152.358	-26.5002	18.7894	170.243	-35.0223	46.4683	187.67	-12.8557	19.9398	
65	0.541667	212.726	14.0258	30.3677	215.019	30.8676	7.41025	223.754	45.7797	-15.1291	225.885	59.2128	-31.8261	168.88	27.228	-30.071	156.33	55.4521	-14.1947	168.727	44.8275	12.0587	143.409	25.834	-24.0318	141.686	50.2024	-5.8703	163.27	33.7192	22.0292	133.919	17.1684	-15.3406	129.112	42.9177	-0.215372	149.497	35.1632	25.6058	123.971	-6.31965	-6.68602	109.487	2.41365	-22.7464	100.328	9.60107	-37.1852	159.702	-27.4564	18.1664	172.588	-32.6387	47.057	192.236	-18.4586	18.4011	
66	0.55	217.647	13.1338	32.3116	222.563	28.308	10.5324	235.206	41.1028	-15.8282	239.059	52.0681	-31.6057	179.769	22.122	-34.5108	172.648	51.4897	-26.4045	181.177	39.2849	7.41995	160.317	16.3745	-31.0641	153.518	46.0567	-16.9059	168.761	27.9144	17.1419	143.372	11.2369	-25.9367	137.845	38.3964	-11.0979	153.837	33.2902	14.8499	135.066	-12.4869	-13.7713	127.034	-6.1945	-29.4643	113.71	-0.138484	-51.2383	163.663	-30.982	13.8918	171.679	-32.407	45.5019	199.067	-19.0285	24.1447	
67	0.558333	221.173	16.9232	34.3436	226.846	29.5796	9.98279	238.014	39.4472	-15.6257	248.251	51.1093	-29.6048	193.617	12.7636	-38.2513	182.897	42.8497	-33.2843	184.333	35.2623	-0.554921	175.64	10.9017	-38.8489	162.609	36.2493	-29.2326	171.223	27.7643	8.17315	158.332	-4.46583	-31.0366	147.925	25.4557	-29.2271	157.48	26.8019	2.9953	147.126	-23.4372	-18.4988	145.237	-19.2351	-43.0391	136.476	-18.0144	-61.2365	175.676	-32.6434	17.2256	175.875	-33.213	49.4318	208.594	-17.98	24.8405	
68	0.566667	219.077	26.5996	33.8163	224.025	36.7613	9.98537	240.714	50.9618	-14.3046	247.854	59.5284	-30.846	207.589	7.31458	-37.6292	187.055	32.8026	-42.3075	189.185	34.9886	-8.13733	186.648	-0.292008	-43.5217	170.219	24.2644	-38.3278	174.261	23.3498	1.29615	173.504	-15.1428	-36.3077	159.508	11.8354	-38.2675	165.052	19.2127	-3.67579	169.145	-33.8405	-22.0138	168.811	-33.0351	-40.7123	166.939	-34.7948	-68.1222	191.924	-32.6025	18.8616	186.787	-30.4635	46.7528	214.049	-14.0407	28.4821	
69	0.575	213.656	34.5095	30.4766	218.198	48.0298	8.26214	231.163	63.0148	-18.1894	234.029	73.7595	-32.0881	219.908	18.3342	-39.4326	193.218	33.5933	-43.041	189.175	34.5154	-10.1524	207.175	0.345592	-41.5675	181.11	19.8898	-42.1739	177.79	16.987	-2.19852	197.8	-18.3296	-34.9574	175.533	1.40165	-42.3715	169.847	7.56185	-7.66837	200.179	-35.172	-21.9171	199.035	-41.4626	-40.4104	201.258	-42.4622	-63.7066	211.788	-29.656	19.0924	204.439	-21.0275	51.3008	224.767	4.00244	35.2184	
